<svg width="121" height="121" viewBox="0 0 121 121" fill="none" xmlns="http://www.w3.org/2000/svg">
<g clip-path="url(#clip0_48_811)">
<path fill-rule="evenodd" clip-rule="evenodd" d="M75.2952 19.3839C75.2952 22.2907 77.6516 24.6469 80.5582 24.6469C83.465 24.6469 85.8212 22.2907 85.8212 19.3839C85.8212 16.4778 83.465 14.1216 80.5582 14.1216C77.6516 14.1216 75.2952 16.4778 75.2952 19.3839Z" fill="#EFC7A4"/>
<path fill-rule="evenodd" clip-rule="evenodd" d="M91.9452 39.0671C91.9452 45.3558 69.1704 45.3558 69.1704 39.0671C69.1704 32.7784 74.2695 27.6801 80.5582 27.6801C86.8471 27.6798 91.9452 32.7782 91.9452 39.0671Z" fill="#E09A32"/>
<path fill-rule="evenodd" clip-rule="evenodd" d="M34.7022 19.3839C34.7022 22.2907 37.0586 24.6469 39.9652 24.6469C42.872 24.6469 45.2282 22.2907 45.2282 19.3839C45.2282 16.4778 42.872 14.1216 39.9652 14.1216C37.0584 14.1216 34.7022 16.4778 34.7022 19.3839Z" fill="#EFC7A4"/>
<path fill-rule="evenodd" clip-rule="evenodd" d="M51.3522 39.0671C51.3522 45.3558 28.5775 45.3558 28.5775 39.0671C28.5775 32.7784 33.6765 27.6801 39.9652 27.6801C46.2539 27.6801 51.3522 32.7782 51.3522 39.0671Z" fill="#76778B"/>
<path fill-rule="evenodd" clip-rule="evenodd" d="M51.9436 10.0248C51.9436 14.6191 55.6678 18.3433 60.2621 18.3433C64.8563 18.3433 68.5803 14.6193 68.5803 10.0248C68.5803 5.43183 64.8563 1.70789 60.2621 1.70789C55.6678 1.70789 51.9436 5.43207 51.9436 10.0248Z" fill="#EFC7A4"/>
<path fill-rule="evenodd" clip-rule="evenodd" d="M78.2591 41.1341C78.2591 51.0736 42.2635 51.0736 42.2635 41.1341C42.2635 31.1947 50.3224 23.1371 60.2621 23.1371C70.2015 23.1371 78.2591 31.1947 78.2591 41.1341Z" fill="#57B5B4"/>
<path fill-rule="evenodd" clip-rule="evenodd" d="M115.158 50.5144C113.137 50.5144 111.498 48.8758 111.498 46.8546C111.498 44.8335 113.137 43.1949 115.158 43.1949C117.179 43.1949 118.818 44.8332 118.818 46.8546C118.818 48.8758 117.179 50.5144 115.158 50.5144Z" fill="#57B5B4"/>
<path fill-rule="evenodd" clip-rule="evenodd" d="M108.038 39.3662C106.017 39.3662 104.379 37.7276 104.379 35.7065C104.379 33.6853 106.017 32.0467 108.038 32.0467C110.06 32.0467 111.698 33.6853 111.698 35.7065C111.698 37.7276 110.06 39.3662 108.038 39.3662Z" fill="#57B5B4"/>
<path fill-rule="evenodd" clip-rule="evenodd" d="M114.972 69.9661C103.44 69.9661 97.6545 83.9362 105.808 92.0897C107.31 93.5917 107.31 96.0278 105.808 97.5298L97.5266 105.811C96.0246 107.313 93.5884 107.313 92.0865 105.811C83.933 97.6574 69.9631 103.443 69.9631 114.975C69.9631 117.1 68.2406 118.821 66.1167 118.821H54.4059C52.282 118.821 50.5595 117.1 50.5595 114.975C50.5595 103.429 36.5999 97.6474 28.4362 105.811C26.9342 107.313 24.4982 107.313 22.9963 105.811L14.7152 97.5298C13.2132 96.0278 13.2132 93.5919 14.7152 92.0897C22.8687 83.9362 17.0828 69.9661 5.55135 69.9661C3.42624 69.9661 1.70493 68.2436 1.70493 66.1197V61.2402C1.70493 60.7027 2.14337 60.2643 2.68087 60.2643H19.1372H30.6864C31.213 60.2643 31.6443 60.6825 31.6612 61.2087C32.1594 76.5754 44.7734 88.8798 60.2613 88.8798C75.749 88.8798 88.3633 76.5754 88.8615 61.2087C88.8783 60.6827 89.3102 60.2643 89.8362 60.2643H101.385H117.842C118.379 60.2643 118.818 60.7027 118.818 61.2402V66.1197C118.818 68.2436 117.097 69.9661 114.972 69.9661Z" fill="url(#paint0_linear_48_811)"/>
<path fill-rule="evenodd" clip-rule="evenodd" d="M80.7983 61.288C80.2649 72.1686 71.2741 80.8264 60.2613 80.8264C49.2486 80.8264 40.2577 72.1686 39.7244 61.288C39.7107 61.0111 39.8015 60.7681 39.9925 60.5673C40.1835 60.3665 40.4222 60.2643 40.6993 60.2643H79.8235C80.1007 60.2643 80.3393 60.3665 80.5304 60.5673C80.7214 60.7681 80.8119 61.0114 80.7983 61.288Z" fill="#028DAE"/>
<path fill-rule="evenodd" clip-rule="evenodd" d="M5.3647 50.5144C7.38587 50.5144 9.02447 48.8758 9.02447 46.8546C9.02447 44.8335 7.38587 43.1949 5.3647 43.1949C3.34353 43.1949 1.70493 44.8332 1.70493 46.8546C1.70493 48.8758 3.34353 50.5144 5.3647 50.5144Z" fill="#57B5B4"/>
<path fill-rule="evenodd" clip-rule="evenodd" d="M12.4842 39.3662C14.5054 39.3662 16.144 37.7276 16.144 35.7065C16.144 33.6853 14.5056 32.0467 12.4842 32.0467C10.463 32.0467 8.82442 33.6853 8.82442 35.7065C8.82442 37.7276 10.463 39.3662 12.4842 39.3662Z" fill="#57B5B4"/>
<path fill-rule="evenodd" clip-rule="evenodd" d="M60.2638 3.41555C63.9089 3.41555 66.8734 6.37996 66.8734 10.0251C66.8734 13.6702 63.9089 16.6347 60.2638 16.6347C56.6187 16.6347 53.6521 13.6705 53.6521 10.0251C53.6518 6.37996 56.6184 3.41555 60.2638 3.41555ZM60.2638 20.05C65.793 20.05 70.2899 15.554 70.2899 10.0251C70.2899 4.49713 65.7927 0 60.2638 0C54.7358 0 50.2365 4.49689 50.2365 10.0251C50.2365 15.554 54.7356 20.05 60.2638 20.05ZM60.2638 79.1197C50.441 79.1197 42.3514 71.5701 41.4848 61.9719H79.0419C78.1747 71.5701 70.0844 79.1197 60.2638 79.1197ZM39.7005 58.5566C38.7568 58.5566 37.9933 59.3201 37.9933 60.2638C37.9933 72.5436 47.985 82.5352 60.2638 82.5352C72.5436 82.5352 82.533 72.5436 82.533 60.2638C82.533 59.3201 81.7696 58.5566 80.8247 58.5566H39.7005ZM117.113 66.1202V61.9722H90.5396C89.6498 77.8995 76.4115 90.5867 60.2638 90.5867C44.1174 90.5867 30.8765 77.8993 29.9879 61.9722H3.41555V66.1202C3.41555 67.2981 4.37416 68.2567 5.55334 68.2567C11.591 68.2567 16.7815 71.7284 19.0948 77.3162C21.4092 82.9039 20.1946 89.0277 15.9249 93.2974C15.0902 94.1321 15.0902 95.4879 15.9249 96.3226L24.2048 104.604C25.0394 105.438 26.3965 105.435 27.2312 104.604C30.0738 101.761 33.7326 100.271 37.5076 100.271C39.4111 100.271 41.3433 100.648 43.2146 101.425C48.7989 103.738 52.2684 108.93 52.2684 114.973C52.2684 116.153 53.227 117.113 54.4084 117.113H66.1199C67.2979 117.113 68.2565 116.153 68.2565 114.973C68.2565 108.936 71.7294 103.747 77.3159 101.432C82.9037 99.1194 89.0274 100.334 93.2972 104.604C94.1294 105.438 95.4877 105.435 96.3201 104.604L104.601 96.3226C105.436 95.4879 105.436 94.1321 104.601 93.2974C100.331 89.0277 99.1157 82.9039 101.431 77.3162C103.747 71.7284 108.939 68.2567 114.977 68.2567C116.149 68.2567 117.113 67.2979 117.113 66.1202ZM5.36743 48.806C4.28926 48.806 3.41579 47.9313 3.41579 46.8544C3.41579 45.7787 4.2895 44.9027 5.36743 44.9027C6.44316 44.9027 7.31906 45.7787 7.31906 46.8544C7.31906 47.9311 6.44316 48.806 5.36743 48.806ZM12.4864 37.6593C11.4107 37.6593 10.5348 36.7834 10.5348 35.7065C10.5348 34.6307 11.4107 33.7548 12.4864 33.7548C13.5634 33.7548 14.4381 34.6307 14.4381 35.7065C14.4383 36.7832 13.5634 37.6593 12.4864 37.6593ZM108.043 33.7546C109.122 33.7546 109.995 34.6305 109.995 35.7062C109.995 36.7832 109.122 37.6591 108.043 37.6591C106.964 37.6591 106.091 36.7832 106.091 35.7062C106.091 34.6305 106.964 33.7546 108.043 33.7546ZM115.161 44.9025C116.24 44.9025 117.113 45.7784 117.113 46.8541C117.113 47.9311 116.24 48.8058 115.161 48.8058C114.082 48.8058 113.21 47.9311 113.21 46.8541C113.21 45.7784 114.082 44.9025 115.161 44.9025ZM118.824 58.5566H108.078L108.043 48.6821L110.098 48.6477C110.845 50.7269 112.831 52.2228 115.161 52.2228C118.123 52.2228 120.523 49.8142 120.523 46.8544C120.523 43.8946 118.123 41.4872 115.161 41.4872C112.762 41.4872 110.73 43.0636 110.041 45.2321L106.309 45.2931C105.374 45.3102 104.627 46.0714 104.63 47.0059L104.657 58.5566H99.5795L99.5188 37.4149H102.951C103.669 39.54 105.677 41.0749 108.043 41.0749C111.005 41.0749 113.405 38.6662 113.405 35.7065C113.405 32.7479 111.005 30.339 108.043 30.339C105.677 30.339 103.669 31.8742 102.951 33.9991H97.8058C97.3522 33.9991 96.9184 34.1794 96.598 34.4985C96.2765 34.821 96.0986 35.2573 96.0986 35.7121L96.164 58.5564H88.8784C87.9346 58.5564 87.1712 59.3198 87.1712 60.2636C87.1712 75.1 75.1003 87.17 60.2638 87.17C45.4271 87.17 33.3552 75.1003 33.3552 60.2636C33.3552 59.3198 32.5918 58.5564 31.648 58.5564H24.3612L24.4278 35.7121C24.4278 35.2573 24.2499 34.821 23.9296 34.4985C23.6082 34.1794 23.1742 33.9991 22.7194 33.9991H17.5737C16.8596 31.874 14.8482 30.339 12.4867 30.339C9.52468 30.339 7.11948 32.7477 7.11948 35.7065C7.11948 38.6662 9.52468 41.0749 12.4867 41.0749C14.8482 41.0749 16.8596 39.54 17.5737 37.4149H21.0076L20.9456 58.5566H15.8688L15.8951 47.0059C15.8985 46.0714 15.1512 45.3102 14.2168 45.2931L10.4821 45.2321C9.79331 43.0633 7.76116 41.4872 5.36743 41.4872C2.40886 41.4872 0 43.8946 0 46.8544C0 49.8142 2.40862 52.2228 5.36743 52.2228C7.69797 52.2228 9.68645 50.7269 10.4257 48.6477L12.4774 48.6821L12.4532 58.5566H1.70716C0.763429 58.5566 0 59.3201 0 60.2638V66.1202C0 69.1819 2.49133 71.6733 5.55334 71.6733C10.1834 71.6733 14.1638 74.3368 15.9388 78.6237C17.716 82.9105 16.7837 87.6074 13.5094 90.8817C11.3431 93.0483 11.3431 96.5717 13.5094 98.738L21.7905 107.019C23.9569 109.183 27.4793 109.183 29.6469 107.019C32.9258 103.74 37.6225 102.805 41.9095 104.58C46.1908 106.353 48.8531 110.337 48.8531 114.973C48.8531 118.037 51.3466 120.529 54.4086 120.529H66.1202C69.1822 120.529 71.6735 118.037 71.6735 114.973C71.6735 110.344 74.3347 106.365 78.6217 104.589C82.911 102.813 87.6077 103.745 90.882 107.019C93.0461 109.184 96.5695 109.184 98.7358 107.019L107.022 98.7383C109.18 96.5719 109.18 93.0485 107.022 90.882C103.743 87.6077 102.813 82.911 104.587 78.6239C106.367 74.3369 110.34 71.6735 114.978 71.6735C118.032 71.6735 120.523 69.1822 120.523 66.1204V60.264C120.523 59.3201 119.765 58.5566 118.824 58.5566ZM39.9669 29.3873C41.3262 29.3873 42.6488 29.6732 43.8705 30.2151C41.7797 33.3425 40.5571 37.0979 40.5571 41.1332C40.5571 41.4306 40.5825 41.7451 40.633 42.0676C36.3977 42.1677 32.3324 41.3306 30.7836 39.9369C30.2888 39.4914 30.2888 39.1837 30.2888 39.0666C30.2885 33.7304 34.6283 29.3873 39.9669 29.3873ZM36.4123 19.3841C36.4123 17.4232 38.0082 15.8297 39.9667 15.8297C41.9264 15.8297 43.5211 17.4232 43.5211 19.3841C43.5211 21.3438 41.9264 22.9397 39.9667 22.9397C38.0082 22.9397 36.4123 21.3438 36.4123 19.3841ZM60.2638 24.8445C69.2451 24.8445 76.5527 32.1519 76.5527 41.1334C76.5527 44.356 69.3991 46.882 60.2638 46.882C51.1297 46.882 43.9737 44.3562 43.9737 41.1334C43.9737 32.1519 51.2813 24.8445 60.2638 24.8445ZM80.5616 29.3873C85.8966 29.3873 90.2398 33.7304 90.2398 39.0666C90.2398 39.1837 90.2398 39.4914 89.7416 39.9369C88.1928 41.3306 84.1287 42.1677 79.8922 42.0676C79.9414 41.7646 79.968 41.4545 79.968 41.1332C79.968 37.0977 78.7454 33.3423 76.6569 30.2151C77.8776 29.6732 79.2 29.3873 80.5616 29.3873ZM77.0039 19.3841C77.0039 17.4232 78.5998 15.8297 80.5616 15.8297C82.5204 15.8297 84.116 17.4232 84.116 19.3841C84.116 21.3438 82.5201 22.9397 80.5616 22.9397C78.5998 22.9397 77.0039 21.3438 77.0039 19.3841ZM28.4999 42.4778C30.8912 44.627 35.6318 45.4881 39.9887 45.4881C40.8084 45.4881 41.6168 45.4559 42.3917 45.3985C43.4191 46.4525 44.9759 47.4719 47.2984 48.3283C50.7484 49.597 55.3534 50.2973 60.2638 50.2973C67.5058 50.2973 74.7938 48.7531 78.114 45.3949C78.8947 45.4556 79.7099 45.4878 80.5365 45.4878C84.8946 45.4878 89.635 44.6268 92.0265 42.4775C93.3733 41.2674 93.6556 39.954 93.6556 39.0666C93.6556 32.4744 88.7569 27.0038 82.4057 26.1037C85.3586 25.2932 87.5318 22.5872 87.5318 19.3841C87.5318 15.5392 84.4044 12.4142 80.5619 12.4142C76.7157 12.4142 73.5883 15.5394 73.5883 19.3841C73.5883 22.5872 75.7627 25.291 78.7098 26.1037C77.2186 26.3138 75.7844 26.7764 74.4515 27.4825C70.865 23.7534 65.8318 21.4287 60.2636 21.4287C54.6944 21.4287 49.66 23.7536 46.0744 27.4825C44.7437 26.7764 43.3064 26.3138 41.8161 26.1037C44.7656 25.2907 46.9376 22.5872 46.9376 19.3841C46.9376 15.5392 43.8092 12.4142 39.9664 12.4142C36.1237 12.4142 32.9965 15.5394 32.9965 19.3841C32.9965 22.5872 35.1699 25.2932 38.1192 26.1037C31.7715 27.0038 26.8727 32.4744 26.8727 39.0666C26.873 39.9542 27.1531 41.2676 28.4999 42.4778Z" fill="#0B406A"/>
</g>
<defs>
<linearGradient id="paint0_linear_48_811" x1="98.1707" y1="60.2643" x2="23.9971" y2="72.1821" gradientUnits="userSpaceOnUse">
<stop stop-color="#57B5B4"/>
<stop offset="1" stop-color="#028DAE"/>
</linearGradient>
<clipPath id="clip0_48_811">
<rect width="120.523" height="120.529" fill="white"/>
</clipPath>
</defs>
</svg>
