<svg width="115" height="110" viewBox="0 0 115 110" fill="none" xmlns="http://www.w3.org/2000/svg">
<g clip-path="url(#clip0_48_832)">
<path fill-rule="evenodd" clip-rule="evenodd" d="M82.8529 22.2052C94.0492 22.2052 103.126 31.2817 103.126 42.478C103.126 53.6743 94.0492 62.7509 82.8529 62.7509H82.8451H72.7157C67.5886 46.6521 52.5163 34.9902 34.7184 34.9902C21.5369 34.9902 9.85155 41.3879 2.5923 51.2458C2.16322 49.797 1.93298 48.2628 1.93298 46.6748C1.93298 37.7964 9.13063 30.599 18.0088 30.599C18.0088 22.1822 24.8322 15.3588 33.2492 15.3588C36.7869 15.3588 40.0429 16.5646 42.6295 18.5873C44.3356 9.11716 52.6185 1.93256 62.5798 1.93256C73.7763 1.93231 82.8529 11.0086 82.8529 22.2052Z" fill="url(#paint0_linear_48_832)"/>
<path d="M90.6621 85.3869C100.003 76.0458 100.003 60.901 90.6621 51.5599C81.321 42.2188 66.1762 42.2188 56.8351 51.5599C47.494 60.901 47.494 76.0458 56.8351 85.3869C66.1761 94.7279 81.321 94.7279 90.6621 85.3869Z" fill="#E09A32"/>
<path fill-rule="evenodd" clip-rule="evenodd" d="M34.7187 78.7281C36.8476 78.7281 38.5842 76.9915 38.5842 74.8626C38.5842 72.7334 36.8476 70.997 34.7187 70.997C32.5895 70.997 30.8531 72.7334 30.8531 74.8626C30.8531 76.9915 32.5895 78.7281 34.7187 78.7281Z" fill="url(#paint1_linear_48_832)"/>
<path fill-rule="evenodd" clip-rule="evenodd" d="M62.58 33.164C64.709 33.164 66.4456 31.4274 66.4456 29.2984C66.4456 27.1692 64.709 25.4329 62.58 25.4329C60.4508 25.4329 58.7145 27.1692 58.7145 29.2984C58.7145 31.4276 60.4511 33.164 62.58 33.164Z" fill="#57B5B4"/>
<path fill-rule="evenodd" clip-rule="evenodd" d="M71.8315 46.5668C67.4463 46.9487 63.4297 48.6177 60.1617 51.1936C63.7656 52.3639 67.8418 52.9696 71.8315 53.1131V46.5668ZM64.4121 56.2053C63.2553 59.4565 62.6376 63.0125 62.4769 66.5403H71.8315V56.9803C69.238 56.8909 66.7437 56.6235 64.4121 56.2053ZM62.4776 70.4058C62.6528 74.2093 63.3396 77.7311 64.4121 80.7426C66.7437 80.3246 69.238 80.0572 71.8315 79.9678V70.4058H62.4776ZM66.0296 84.381C67.6183 87.2799 69.6385 89.3482 71.8318 90.1233V83.8348C69.8031 83.9077 67.858 84.095 66.0296 84.381ZM63.7665 88.0644C63.1521 87.1562 62.6011 86.1913 62.1082 85.1882C61.4356 85.3626 60.7864 85.5515 60.1634 85.7538C61.282 86.6353 62.488 87.4106 63.7665 88.0644ZM60.6296 81.5937C59.4992 78.2754 58.7824 74.4688 58.6087 70.4058H56.5503C55.4829 70.4058 54.6175 69.5404 54.6175 68.4731C54.6175 67.4057 55.4829 66.5403 56.5503 66.5403H58.6094C58.7735 62.7484 59.4246 58.8899 60.6301 55.3544C59.3651 55.007 58.1709 54.6105 57.0605 54.1706C50.0095 62.3977 50.01 74.5502 57.0617 82.7768C58.1716 82.3373 59.3654 81.9409 60.6296 81.5937ZM62.5796 23.8461C64.8791 23.8461 66.888 25.279 67.6794 27.3659H80.2821C81.3495 27.3659 82.2149 28.2313 82.2149 29.2987V37.4124C84.9202 38.1394 87.5237 39.2203 89.9658 40.6312L95.7087 34.888C96.4635 34.1333 97.6872 34.1333 98.4419 34.888L100.28 36.7256C97.8341 29.3194 90.8865 24.1379 82.8527 24.1379V24.1304C81.7894 24.1304 80.9274 23.2684 80.9274 22.2051C80.9274 12.09 72.7133 3.86506 62.5796 3.86506C58.1076 3.86506 54.0126 5.46153 50.8346 8.11475C47.6032 10.8122 45.3139 14.5927 44.5308 18.8919C44.2907 20.2985 42.6189 21.0228 41.444 20.1047C36.1752 15.9872 28.605 16.423 23.8393 21.1892C21.4101 23.6187 19.9419 26.9206 19.9419 30.5992C19.9419 31.6666 19.0765 32.532 18.0091 32.532C10.2021 32.532 3.87231 38.857 3.86603 46.6634C19.7244 29.3233 46.6907 28.448 63.6327 44.6792C73.3908 40.5182 84.6361 42.7795 92.0476 50.191C102.145 60.2885 102.145 76.6586 92.0476 86.7561C81.9503 96.8537 65.5797 96.8534 55.4824 86.7561C43.7203 74.994 45.9901 55.4022 60.0104 46.5767C43.3746 31.6835 17.4085 34.3367 4.14797 52.3861C3.20502 53.6695 1.17851 53.331 0.732279 51.7534C-1.09153 45.3042 0.565819 38.6506 5.2755 33.9412C8.13021 31.0865 11.9387 29.1858 16.1819 28.7582C17.3445 17.819 28.4255 10.7745 38.8374 14.3578C39.7306 14.6654 40.5926 15.0464 41.4159 15.4941C44.3079 6.35858 52.8183 0 62.5803 0C74.1711 0 83.7562 8.89873 84.7016 20.3492C90.058 20.7918 94.8789 23.1396 98.4852 26.715C102.318 30.5156 104.772 35.7082 105.029 41.4749L107.479 43.9247C108.233 44.6794 108.233 45.9031 107.479 46.6579L101.739 52.3977C103.135 54.8234 104.222 57.4548 104.948 60.1515H113.067C114.135 60.1515 115 61.0169 115 62.0843V74.8633C115 75.9307 114.135 76.7961 113.067 76.7961H104.953C104.226 79.5015 103.146 82.1052 101.735 84.547L107.478 90.29C108.232 91.0447 108.232 92.2684 107.478 93.0232L98.4415 102.059C97.6867 102.814 96.463 102.814 95.7083 102.059L89.9684 96.3195C87.5428 97.7154 84.9113 98.8031 82.2144 99.5284V107.649C82.2144 108.716 81.349 109.581 80.2816 109.581H67.5026C66.4352 109.581 65.5698 108.716 65.5698 107.649V99.5349C62.8637 98.8077 60.2615 97.7275 57.8192 96.3164L52.0762 102.059C51.3214 102.814 50.0977 102.814 49.343 102.059L40.3068 93.0232C39.552 92.2684 39.552 91.0447 40.3068 90.29L46.0466 84.5501C44.6509 82.1252 43.5628 79.4923 42.8377 76.7961H39.8173C38.4235 80.472 33.6706 81.5275 30.862 78.7187C27.4347 75.2912 29.877 69.4107 34.7174 69.4107C37.0165 69.4107 39.0261 70.8436 39.8173 72.9303H44.3552V72.9317C45.2457 72.931 46.0471 73.5497 46.2428 74.4553C46.6052 76.1288 47.1113 77.7547 47.755 79.3106C48.3805 80.8228 49.1446 82.2929 50.0422 83.7011C50.599 84.4574 50.5355 85.5276 49.8511 86.2121L44.4067 91.6562L50.7097 97.9592L56.1582 92.5107L56.1606 92.5131C56.7878 91.8848 57.7887 91.755 58.5664 92.2539C60.0162 93.1865 61.5252 93.9748 63.0787 94.6194C64.6179 95.2577 66.2064 95.7554 67.8297 96.1115C68.7413 96.2668 69.4354 97.0607 69.4354 98.0165V105.715H78.3488V98.0102H78.3503C78.3495 97.1197 78.9683 96.3183 79.8738 96.1226C81.5473 95.7602 83.173 95.2541 84.7289 94.6105C86.2411 93.985 87.7112 93.2208 89.1194 92.3233C89.8756 91.7661 90.9459 91.8299 91.6304 92.5144L97.0745 97.9585L103.378 91.6555L97.929 86.207L97.9314 86.2046C97.303 85.5774 97.1731 84.5765 97.6722 83.7988C98.6048 82.3489 99.3931 80.8397 100.038 79.2865C100.676 77.7475 101.174 76.1587 101.53 74.5355C101.685 73.6239 102.479 72.9298 103.435 72.9298H111.134V64.0163H103.429V64.0149C102.539 64.0156 101.738 63.3969 101.542 62.4914C101.179 60.8178 100.673 59.1924 100.03 57.6363C99.4044 56.1241 98.6403 54.654 97.7428 53.2457C97.1856 52.4895 97.2494 51.4193 97.9339 50.7348L103.378 45.2907L97.0752 38.9877L91.6267 44.4361L91.6243 44.4337C90.9971 45.0621 89.9962 45.1921 89.2185 44.693C87.7687 43.7604 86.2594 42.9718 84.706 42.3275C83.167 41.6889 81.5782 41.1917 79.955 40.8354C79.0434 40.68 78.3493 39.8862 78.3493 38.9304V31.2317H67.6794C66.2849 34.9083 61.5322 35.9626 58.7242 33.1543C55.2969 29.7263 57.7392 23.8461 62.5796 23.8461ZM63.7018 28.1762C62.7054 27.1799 60.9925 27.8877 60.9925 29.2984C60.9925 30.7094 62.7057 31.417 63.7018 30.4206C64.3212 29.8014 64.3212 28.7957 63.7018 28.1762ZM35.8404 73.7404C34.844 72.744 33.1311 73.4517 33.1311 74.8626C33.1311 76.2735 34.8443 76.9811 35.8404 75.9848C36.4598 75.3653 36.4598 74.3598 35.8404 73.7404ZM24.5387 74.8626C24.5387 69.2406 29.096 64.6834 34.7179 64.6834C35.7853 64.6834 36.6507 63.818 36.6507 62.7506C36.6507 61.6832 35.7853 60.8179 34.7179 60.8179C26.9617 60.8179 20.6732 67.1064 20.6732 74.8626C20.6732 75.93 21.5386 76.7954 22.606 76.7954C23.6733 76.7954 24.5387 75.93 24.5387 74.8626ZM34.7179 50.4811C21.253 50.4811 10.3365 61.3974 10.3365 74.8626C10.3365 75.93 11.2019 76.7954 12.2692 76.7954C13.3366 76.7954 14.202 75.93 14.202 74.8626C14.202 63.5317 23.387 54.3467 34.7179 54.3467C35.7853 54.3467 36.6507 53.4813 36.6507 52.4139C36.6507 51.3465 35.7855 50.4811 34.7179 50.4811ZM34.7179 40.1447C15.5441 40.1447 0 55.6888 0 74.8626C0 75.93 0.865399 76.7954 1.93277 76.7954C3.00015 76.7954 3.86555 75.93 3.86555 74.8626C3.86555 57.8228 17.6784 44.0102 34.7179 44.0102C35.7853 44.0102 36.6507 43.1448 36.6507 42.0774C36.6507 41.0101 35.7855 40.1447 34.7179 40.1447ZM75.6971 53.1136C77.7129 53.0413 79.6245 52.8611 81.5 52.5668C79.9115 49.6674 77.8905 47.5982 75.6971 46.8229V53.1136ZM75.6971 56.9801V66.5403H85.0512C84.876 62.7376 84.1892 59.2163 83.117 56.2053C80.7124 56.6368 78.2106 56.8929 75.6971 56.9801ZM75.6971 70.4058V79.968C78.2085 80.055 80.7131 80.3113 83.116 80.7426C84.273 77.4914 84.8913 73.9336 85.0517 70.4058H75.6971ZM75.6971 83.8345V90.3794C80.1043 89.9955 84.1392 88.3115 87.4159 85.7134C87.271 85.7035 87.1251 85.6769 86.9803 85.6325C83.4521 84.5417 79.5822 83.9737 75.6971 83.8345ZM86.8982 81.5932C87.3111 81.7065 87.716 81.8249 88.113 81.9481C88.9658 82.2103 89.505 83.0107 89.4729 83.8618C92.9362 80.327 95.2159 75.6277 95.6706 70.4056H88.9194C88.7554 74.198 88.1038 78.0574 86.8982 81.5932ZM88.9196 66.5403H95.6706C95.2159 61.3182 92.9359 56.6194 89.4727 53.0846C89.5055 53.9365 88.9663 54.7376 88.1127 55C87.7162 55.1232 87.3118 55.2413 86.8994 55.3544C88.0298 58.6725 88.7459 62.4786 88.9196 66.5403ZM87.4186 51.2344C86.2853 50.3355 85.0611 49.5459 83.762 48.8818C84.3769 49.7909 84.928 50.7556 85.4211 51.7594C85.9106 51.6323 87.0709 51.2579 87.4186 51.2344Z" fill="#0B406A"/>
</g>
<defs>
<linearGradient id="paint0_linear_48_832" x1="85.2854" y1="1.93255" x2="20.6943" y2="10.5665" gradientUnits="userSpaceOnUse">
<stop stop-color="#57B5B4"/>
<stop offset="1" stop-color="#028DAE"/>
</linearGradient>
<linearGradient id="paint1_linear_48_832" x1="37.2212" y1="70.997" x2="32.2305" y2="71.398" gradientUnits="userSpaceOnUse">
<stop stop-color="#57B5B4"/>
<stop offset="1" stop-color="#028DAE"/>
</linearGradient>
<clipPath id="clip0_48_832">
<rect width="115" height="109.581" fill="white"/>
</clipPath>
</defs>
</svg>
