<svg width="163" height="72" viewBox="0 0 163 72" fill="none" xmlns="http://www.w3.org/2000/svg">
<g clip-path="url(#clip0_4_584)">
<path d="M-2.04272e-05 18.5383C0.0711251 18.5273 0.12038 18.4943 0.125853 18.4172C0.508944 15.2063 2.87864 13.6697 5.85034 13.2015C23.0128 8.91119 40.1753 4.62084 57.3378 0.341498C63.3743 -1.64121 68.5022 5.39189 64.1021 10.3431C62.7504 11.8081 61.0155 12.794 59.215 13.6201C48.3626 19.2929 37.4554 24.8499 26.603 30.5282C23.987 31.861 21.3546 33.2158 18.7496 34.5817C17.3431 35.2096 16.057 36.2119 14.5246 36.4543C12.2863 36.9004 9.84543 35.7328 8.75636 33.706C6.6001 30.5557 4.49857 27.3503 2.39157 24.156C1.69653 23.1041 0.892036 22.1127 0.426853 20.9341C0.224362 20.6147 0.229835 19.6839 -0.00549316 19.5242V18.5383H-2.04272e-05Z" fill="#57B5B4"/>
<path d="M50.7706 24.1725C55.0119 24.0568 57.7921 29.2394 55.4224 32.7807C54.1637 34.7855 51.7502 35.496 49.884 36.7792C42.3042 41.1907 34.7354 45.6353 27.1666 50.0688C24.1566 52.3545 20.0028 51.8368 18.164 48.356C16.9107 46.7974 16.3799 44.6549 17.0804 42.7438C17.7481 40.3976 19.9919 39.4283 21.9675 38.4259C30.1985 34.1246 38.4405 29.8507 46.6605 25.5329C47.963 24.883 49.2437 24.0458 50.7651 24.1725H50.7706Z" fill="#028DAE"/>
<path d="M45.7137 45.4976C48.7894 45.426 51.8104 48.3505 51.378 51.5173C51.285 52.9438 50.3382 54.0838 49.6486 55.2679C48.275 57.5976 46.874 59.8942 45.4784 62.2129C42.9664 66.1287 40.2848 73.3436 34.418 71.0084C33.2523 70.4577 32.4259 69.4718 31.7637 68.3923C30.8881 67.054 29.9742 65.7432 29.0985 64.4049C25.6014 60.1421 26.291 55.9123 31.3259 53.478C34.8121 51.2695 38.3091 49.0885 41.8117 46.9185C42.95 46.1089 44.2744 45.415 45.7083 45.4976H45.7137Z" fill="#0B406A"/>
<path d="M67.8222 33.2048V29.4101H84.8588V33.2048H78.6637V48.0531H74.0447V33.2048H67.8222Z" fill="#0B406A"/>
<path d="M102.705 44.374V48.0586H87.639V29.4156H102.366V33.1002H92.258V36.8398H100.817V40.5243H92.258V44.3796H102.705V44.374Z" fill="#0B406A"/>
<path d="M127.3 29.4101H131.919V36.9169H140.139V29.4101H144.758V48.0531H140.139V40.7115H131.919V48.0531H127.3V29.4101Z" fill="#0B406A"/>
<path d="M116.458 44.4567C117.493 44.4567 118.456 44.2474 119.359 43.8343C120.262 43.4212 121.039 42.9366 121.696 42.3913L123.754 45.2552C123.283 45.7069 122.763 46.142 122.188 46.5605C121.614 46.9791 120.99 47.3371 120.317 47.6345C119.638 47.9374 118.91 48.1797 118.122 48.356C117.334 48.5377 116.497 48.6258 115.616 48.6258C114.209 48.6258 112.934 48.4 111.801 47.9429C110.663 47.4913 109.7 46.8414 108.901 46.0043C108.102 45.1616 107.483 44.1592 107.04 42.9861C106.597 41.813 106.378 40.5188 106.378 39.1033C106.378 37.5943 106.624 36.2064 107.111 34.9507C107.598 33.695 108.282 32.6155 109.152 31.7068C110.028 30.798 111.062 30.0986 112.266 29.5974C113.465 29.0962 114.789 28.8484 116.234 28.8484C117.323 28.8484 118.374 28.9805 119.386 29.2449C120.399 29.5093 121.34 29.8562 122.199 30.2913V34.7414C121.411 34.1356 120.53 33.6619 119.551 33.326C118.576 32.9845 117.608 32.8138 116.65 32.8138C115.807 32.8138 115.052 32.9515 114.384 33.2268C113.717 33.5022 113.153 33.8932 112.693 34.4054C112.233 34.9176 111.883 35.529 111.637 36.2449C111.391 36.9609 111.27 37.754 111.27 38.6242C111.27 39.4944 111.391 40.315 111.637 41.031C111.883 41.747 112.228 42.3638 112.677 42.8705C113.126 43.3772 113.673 43.7737 114.308 44.0491C114.948 44.3245 115.659 44.4622 116.447 44.4622L116.458 44.4567Z" fill="#0B406A"/>
<path d="M87.1081 52.2498L79.5612 70.8927H74.9422L67.3953 52.2498H72.2661L77.5035 66.0516L82.7135 52.2498H87.1026H87.1081Z" fill="#0B406A"/>
<path d="M104.539 67.2137V70.8982H89.4724V52.2553H104.199V55.9398H94.0913V59.6794H102.651V63.364H94.0913V67.2192H104.539V67.2137Z" fill="#0B406A"/>
<path d="M116.475 64.6637H112.786V70.8982H108.167V52.2553H117.148C119.496 52.2553 121.313 52.8005 122.61 53.8965C123.907 54.9925 124.553 56.463 124.553 58.3136C124.553 59.5583 124.235 60.6488 123.595 61.574C122.955 62.4993 122.095 63.2263 121.006 63.755L125.341 70.8982H119.961L116.469 64.6637H116.475ZM112.786 60.9792H116.727C117.684 60.9792 118.418 60.7534 118.938 60.2963C119.452 59.8447 119.715 59.2223 119.715 58.4237C119.715 57.6251 119.452 57.0413 118.927 56.5952C118.401 56.1491 117.668 55.9288 116.732 55.9288H112.792V60.9737L112.786 60.9792Z" fill="#0B406A"/>
<path d="M126.583 56.05V52.2553H143.62V56.05H137.424V70.8982H132.805V56.05H126.583Z" fill="#0B406A"/>
<path d="M154.685 71.46C153.35 71.46 152.163 71.2727 151.112 70.8927C150.061 70.5127 149.169 69.9785 148.436 69.279C147.702 68.5796 147.144 67.7259 146.761 66.7125C146.378 65.6991 146.181 64.5756 146.181 63.3254V52.2443H150.8V63.408C150.8 64.7298 151.177 65.7322 151.938 66.4096C152.699 67.0925 153.678 67.4285 154.882 67.4285C156.086 67.4285 157.066 67.087 157.838 66.4096C158.609 65.7322 158.993 64.7298 158.993 63.408V52.2443H163.217V63.3254C163.217 64.5536 163.015 65.6661 162.61 66.6685C162.205 67.6708 161.636 68.5245 160.892 69.235C160.147 69.9454 159.255 70.4907 158.204 70.8762C157.154 71.2617 155.983 71.46 154.685 71.46Z" fill="#0B406A"/>
</g>
<defs>
<clipPath id="clip0_4_584">
<rect width="163" height="71.46" fill="white"/>
</clipPath>
</defs>
</svg>
