<svg version="1.2" xmlns="http://www.w3.org/2000/svg" viewBox="0 0 200 200" width="200" height="200">
	<title>New Project</title>
	<style>
		.s0 { fill: #57b5b4 } 
		.s1 { fill: #028dae } 
		.s2 { fill: #0b406a } 
	</style>
	<path id="Layer copy" class="s0" d="m18 82.5q0.1 0 0.1-0.1c0.4-3.2 2.8-4.7 5.8-5.2q25.7-6.4 51.4-12.9c6.1-1.9 11.2 5.1 6.8 10-1.3 1.5-3.1 2.5-4.9 3.3-10.8 5.7-21.7 11.2-32.6 16.9q-3.9 2-7.9 4.1c-1.4 0.6-2.6 1.6-4.2 1.9-2.2 0.4-4.7-0.8-5.7-2.8-2.2-3.1-4.3-6.3-6.4-9.5-0.7-1.1-1.5-2.1-2-3.3-0.2-0.3-0.2-1.2-0.4-1.4v-1z"/>
	<path id="Layer copy 2" class="s1" d="m68.8 88.2c4.2-0.1 7 5 4.6 8.6-1.2 2-3.6 2.7-5.5 4q-11.4 6.6-22.7 13.3c-3 2.3-7.2 1.7-9-1.7-1.3-1.6-1.8-3.7-1.1-5.7 0.6-2.3 2.9-3.3 4.9-4.3 8.2-4.3 16.4-8.5 24.7-12.9 1.3-0.6 2.5-1.5 4.1-1.3z"/>
	<path id="Layer copy 3" class="s2" d="m63.7 109.5c3.1-0.1 6.1 2.9 5.7 6-0.1 1.4-1.1 2.6-1.8 3.8-1.3 2.3-2.7 4.6-4.1 6.9-2.5 3.9-5.2 11.1-11.1 8.8-1.1-0.5-2-1.5-2.6-2.6-0.9-1.3-1.8-2.7-2.7-4-3.5-4.3-2.8-8.5 2.2-10.9q5.3-3.3 10.5-6.6c1.1-0.8 2.5-1.5 3.9-1.4z"/>
	<path id="Layer copy 4" class="s2" d="m85.8 97.2v-3.8h17.1v3.8h-6.2v14.9h-4.7v-14.9z"/>
	<path id="Layer copy 5" class="s2" d="m120.7 108.4v3.7h-15.1v-18.7h14.8v3.7h-10.1v3.7h8.5v3.7h-8.5v3.9h10.4z"/>
	<path id="Layer copy 6" class="s2" d="m145.3 93.4h4.6v7.5h8.2v-7.5h4.7v18.7h-4.7v-7.4h-8.2v7.4h-4.6z"/>
	<path id="Layer copy 7" class="s2" d="m134.5 108.5q1.5 0 2.9-0.7 1.3-0.6 2.3-1.4l2.1 2.9q-0.8 0.6-1.6 1.3-0.9 0.6-1.9 1-1 0.5-2.2 0.8-1.2 0.2-2.5 0.2-2.1 0-3.8-0.7-1.7-0.6-2.9-1.9-1.2-1.3-1.9-3-0.6-1.8-0.6-3.9 0-2.3 0.7-4.1 0.7-1.9 2.1-3.3 1.3-1.4 3.1-2.1 1.8-0.8 3.9-0.8 1.7 0 3.2 0.4 1.5 0.4 2.8 1.1v4.4q-1.2-0.9-2.6-1.4-1.5-0.5-3-0.5-1.2 0-2.2 0.4-1 0.4-1.7 1.2-0.7 0.8-1.1 1.8-0.3 1.1-0.3 2.4 0 1.3 0.3 2.4 0.4 1.1 1.1 1.9 0.7 0.7 1.6 1.1 1 0.5 2.1 0.5z"/>
	<path id="Layer copy 8" class="s2" d="m105.1 116.2l-7.5 18.7h-4.7l-7.5-18.7h4.9l5.2 13.9 5.2-13.9h4.4z"/>
	<path id="Layer copy 9" class="s2" d="m122.5 131.2v3.7h-15v-18.6h14.7v3.6h-10.1v3.8h8.6v3.7h-8.6v3.8h10.4z"/>
	<path id="Layer copy 10" fill-rule="evenodd" class="s2" d="m130.8 128.7v6.2h-4.6v-18.6h8.9q3.6 0 5.5 1.6 2 1.6 2 4.4 0 1.9-1 3.3-1 1.4-2.6 2.2l4.3 7.1h-5.3l-3.5-6.2zm0-3.7h3.9q1.4 0 2.2-0.7 0.8-0.7 0.8-1.9c0-0.8-0.3-1.4-0.8-1.8q-0.8-0.7-2.2-0.7h-3.9v5.1z"/>
	<path id="Layer copy 11" class="s2" d="m144.6 120v-3.7h17v3.7h-6.2v14.9h-4.6v-14.9z"/>
	<path id="Layer copy 12" class="s2" d="m172.7 135.5q-2 0-3.6-0.6-1.6-0.6-2.7-1.6-1.1-1.1-1.6-2.6-0.6-1.5-0.6-3.4v-11.1h4.6v11.2q0 2 1.1 3 1.2 1 3 1 1.8 0 2.9-1 1.2-1 1.2-3v-11.2h4.2v11.1q0 1.9-0.6 3.4-0.6 1.5-1.7 2.5-1.1 1.1-2.7 1.7-1.6 0.6-3.5 0.6z"/>
</svg>