<?xml version="1.0" encoding="utf-8"?>
<!-- Generator: Adobe Illustrator 28.1.0, SVG Export Plug-In . SVG Version: 6.00 Build 0)  -->
<svg version="1.1" id="Layer_1" xmlns="http://www.w3.org/2000/svg" xmlns:xlink="http://www.w3.org/1999/xlink" x="0px" y="0px"
	 viewBox="0 0 865.8 271.4" style="enable-background:new 0 0 865.8 271.4;" xml:space="preserve">
<style type="text/css">
	.st0{fill:#57B5B4;}
	.st1{fill:#028DAE;}
	.st2{fill:#0B406A;}
	.cls-1{fill:#163e6e; animation: cls-1-turn-black 2s 5s ease-out forwards; } .cls-2{fill:#008aac; animation: cls-2-turn-black 3s 5.3s ease-out forwards; } .cls-3{fill:#41b9bb; animation: cls-3-turn-black 4s 5.8s ease-out forwards; } @keyframes cls-1-turn-black { 0% { fill:#163e6e; } 100% { fill: #373f43 } } @keyframes cls-2-turn-black { 0% { fill:#008aac; } 100% { fill: #373f43 } } @keyframes cls-3-turn-black { 0% { fill:#41b9bb; } 100% { fill: #373f43 } }
</style>
<g>
	<g>
		<path class="cls-1" d="M1.4,72.8c0.3,0,0.4-0.2,0.5-0.4C3.3,60.6,12,55,22.9,53.3c63.2-15.7,126.4-31.4,189.5-47
			c22.3-7.3,41.2,18.4,25,36.5c-5,5.4-11.4,9-18,12c-40,20.8-80.1,41.1-120,61.8c-9.6,4.9-19.3,9.8-28.9,14.8
			c-5.2,2.3-9.9,6-15.6,6.9c-8.2,1.6-17.2-2.6-21.2-10.1c-8-11.4-15.7-23.2-23.5-34.8C7.6,89.6,4.7,85.9,3,81.6
			c-0.8-1.2-0.7-4.6-1.6-5.2C1.4,75.2,1.4,74,1.4,72.8z"/>
		<path class="cls-2" d="M188.3,93.4c15.6-0.4,25.8,18.5,17.1,31.5c-4.6,7.3-13.5,9.9-20.4,14.6c-27.9,16.1-55.8,32.4-83.6,48.6
			c-11.1,8.4-26.4,6.5-33.1-6.3c-4.6-5.7-6.6-13.5-4-20.5c2.5-8.6,10.7-12.1,18-15.8c30.3-15.7,60.6-31.4,90.9-47.2
			C178,96,182.7,93,188.3,93.4z"/>
		<path class="cls-3" d="M169.7,171.4c11.3-0.3,22.4,10.4,20.8,22c-0.3,5.2-3.8,9.4-6.4,13.7c-5.1,8.5-10.2,16.9-15.3,25.4
			c-9.2,14.3-19.1,40.7-40.7,32.2c-4.3-2-7.3-5.6-9.8-9.6c-3.2-4.9-6.6-9.7-9.8-14.6c-12.9-15.6-10.3-31.1,8.2-40
			c12.8-8.1,25.7-16.1,38.6-24C159.5,173.7,164.4,171.1,169.7,171.4z"/>
	</g>
	<path class="st2" d="M457.4,264.8c0-45.5,0-90.8,0-136.4c9.2,0,18.3,0,28,0c0,9.6,0,19.1,0,28.6c0.3,0.1,0.6,0.2,0.9,0.3
		c0.7-0.9,1.5-1.7,2.2-2.7c7.8-10.6,26-10.2,33.4,0.8c3.8,5.6,5,12,5,18.6c0.1,28.8,0,57.6,0,86.4c0,1.4-0.2,2.8-0.4,4.5
		c-9.2,0-18.2,0-27.5,0c-0.1-2.2-0.3-4.2-0.3-6.3c0-26.4,0-52.8,0-79.2c0-2.1-0.1-4.1-0.5-6.2c-0.6-3.2-2.8-5-6.1-5
		c-3.1,0-5.1,2-5.7,4.8c-0.6,2.4-0.8,5-0.8,7.6c-0.1,25.9,0,51.9,0,77.8c0,2,0,4.1,0,6.4C476,264.8,467,264.8,457.4,264.8z
		 M836.9,154.6c0,24.3,0,48.7-0.1,73c0,4.3-0.5,8.5-1.1,12.8c-0.5,3.2-2.8,4.3-5.9,4.2c-3-0.1-4.9-1.5-5.2-4.4
		c-0.4-3.5-0.8-6.9-0.8-10.4c-0.1-25.3,0-50.6,0-75.8c0-1.8-0.2-3.7-0.2-5.4c-9.5,0-18.5,0-27.6,0c-0.1,1.6-0.2,2.9-0.2,4.2
		c0,27.7-0.1,55.3,0.1,83c0,4.7,0.7,9.5,1.6,14.2c1.6,8.7,6.4,14.3,15.4,16c10.6,2,16.5-0.5,22.3-9.3c0.2-0.3,0.7-0.5,1.4-1.1
		c0.3,3.4,0.5,6.5,0.7,9.5c9.4,0,18.2,0,27.4,0c0-39,0-77.6,0-116.6c-9,0-17.7,0-27.1,0C837.1,150.5,836.9,152.6,836.9,154.6z
		 M605.5,128.3c-8.9,0-17.2,0-26,0c-2.8,29.6-5.7,59-8.5,88.3c-0.4,0-0.8,0-1.2,0.1c-3.2-29.4-6.4-58.8-9.6-88.7
		c-7.5,0-14.6,0-21.7,0c-1.2,0-2.4,0.2-4.2,0.4c5.6,45.7,11.2,91,16.9,136.5c12.6,0,24.6,0,37.5,0
		C594.3,219.3,599.9,174,605.5,128.3z M367.2,172c-1.4-14.2-9.5-21.7-23.6-24.1c-5-0.8-10.2-1-15.2-0.5c-18.6,1.6-29,13.2-29.1,31.8
		c-0.1,16.7-0.3,33.4,0.1,50.1c0.2,6.3,1.3,12.7,3.1,18.7c2.8,9.4,9.8,15,19.4,17.1c8.2,1.8,16.4,1.6,24.6-0.4
		c6-1.5,11.3-4.4,14.8-9.7c7-10.7,7-22.6,6.4-34.7c-9.3,0-18.1,0-27.3,0c0,3.4,0.1,6.5,0,9.4c-0.2,3.5-0.4,7-0.9,10.4
		c-0.4,2.6-2.1,4.2-4.8,4.6c-2.4,0.3-4.6-0.3-5.7-2.5c-0.9-1.8-1.5-3.9-1.6-5.9c-0.3-7.5-0.3-14.9-0.4-22.4c0-1.5,0.2-3.1,0.3-5
		c13.6,0,26.7,0,40.3,0C367.5,196,368.4,183.9,367.2,172z M327.3,194.6c0-6.9-0.1-13.5,0.1-20.1c0-1.5,0.8-3.4,1.9-4.2
		c1.6-1.2,4.2-2.5,5.8-2c1.9,0.6,4.3,3,4.5,4.7c0.5,7,0.2,14.2,0.2,21.6C335.4,194.6,331.5,194.6,327.3,194.6z M680.3,171.5
		c-1-12.1-8.3-20.4-20.4-22.9c-6.4-1.3-13.3-1.8-19.8-1c-18.4,2.3-27.7,13.4-27.7,32c0,16.7-0.2,33.4,0.1,50.1
		c0.1,5.8,1.2,11.7,2.8,17.3c2.9,10,10,16,20.2,18c7.9,1.6,15.8,1.4,23.6-0.4c7.3-1.7,13.3-5.5,16.8-12.3c5.2-10.1,5.5-21,4.7-32.3
		c-9.2,0-18,0-27.3,0c0,2.8,0.1,5.3,0,7.8c-0.2,3.6-0.2,7.3-0.7,10.9c-0.7,4.3-2.6,6-6.1,5.9c-3.2-0.1-5.6-2-5.8-5.8
		c-0.4-9.7-0.3-19.3-0.4-29c0-0.2,0.4-0.5,0.9-1c12.7,0,25.7,0,39.1,0C680.5,195.9,681.3,183.6,680.3,171.5z M640.6,174.2
		c0.3-4.1,3.2-6.4,6.5-6.4c3.1,0.1,5.6,2.1,5.9,6.4c0.5,6.6,0.1,13.3,0.1,20.3c-4,0-8.1,0-12.6,0
		C640.5,187.4,640.1,180.8,640.6,174.2z M447,174.7c-0.5-11.2-5.8-19.2-16-24c-9-4.2-18.4-4.3-28-2.9c-12.8,1.9-20.6,9.3-23.3,21.9
		c-0.8,3.9-1.7,7.8-1.8,11.7c-0.3,16.5-0.6,33.1-0.2,49.6c0.1,5.9,1.7,12,3.6,17.6c2.8,8.2,8.9,13.3,17.3,15.6
		c8.6,2.4,17.3,2.7,25.9,0.6c12.4-3,21-12.1,22.1-24.5c0.7-8,0.1-16.2,0.1-24.7c-9.2,0-18.3,0-27.9,0c0,6,0.1,11.7,0,17.4
		c-0.1,2.5-0.4,5.1-1.1,7.5c-0.7,2.7-2.7,4.2-5.6,4.2c-3,0-4.9-1.6-5.7-4.2c-0.6-2.1-1-4.3-1.1-6.5c-0.1-18.3-0.1-36.6,0-54.9
		c0-2,0.2-4.2,0.8-6.1c0.9-3.1,3.2-4.6,6.5-4.5c3.3,0.1,4.9,1.9,5.4,4.9c0.3,2.2,0.6,4.4,0.6,6.6c0.1,4.6,0,9.1,0,14
		c9.5,0,18.5,0,28.2,0C447,187.4,447.2,181,447,174.7z M276.6,154.3c5.5,0,10.5,0,15.6,0c0-9,0-17.5,0-25.9c-20,0-39.6,0-59.1,0
		c0,8.8,0,17.2,0,26c5.3,0,10.3,0,16,0c0,37.1,0,73.7,0,110.4c9.3,0,18,0,27.5,0C276.6,227.8,276.6,191.3,276.6,154.3z M752,128.2
		c0,7.9,0,15.6,0,23.4c-3,0.4-5.3,0.7-7.5,1c0,7.1,0,13.7,0,20.5c2.6,0.2,4.9,0.4,7.5,0.7c0,2.5,0,4.6,0,6.6c0,21.3,0,42.6,0,64
		c0,3.2,0.2,6.4,0.8,9.5c1.1,6.2,4.5,10.4,11,11.5c7.6,1.3,15.1,0.7,22.7-1.5c0-6.2,0-12.1,0-18.1c-2.3-0.4-4.3-0.8-5.9-1.1
		c-1.9-4.2-2.4-65.7-0.8-71.1c2.1-0.2,4.3-0.4,6.8-0.5c0-6.9,0-13.5,0-20.5c-2.5-0.3-4.8-0.6-7.5-1c0-7.8,0-15.3,0-23.5
		C769.8,128.2,761.3,128.2,752,128.2z M720.1,158.2c-0.2-3.3-0.4-6.7-0.5-9.8c-9.5,0-18.5,0-27.4,0c0,39.1,0,77.7,0,116.4
		c9.4,0,18.4,0,27.7,0c0-30.2,0-60,0-89.8c6-4.9,13.5-3.9,20-5.9c0-7.4,0-14.5,0-21.9C730.8,147,724.8,151.1,720.1,158.2z"/>
</g>
</svg>
