<?xml version="1.0" encoding="utf-8"?>
<!-- Generator: Adobe Illustrator 27.8.1, SVG Export Plug-In . SVG Version: 6.00 Build 0)  -->
<svg version="1.1" id="Layer_1" xmlns="http://www.w3.org/2000/svg" xmlns:xlink="http://www.w3.org/1999/xlink" x="0px" y="0px"
	 viewBox="0 0 150 150" style="enable-background:new 0 0 150 150;" xml:space="preserve">
<style type="text/css">
	.st0{fill:#FFFFFF;}
</style>
<path class="st0" d="M150,150h-0.9c-14.3,0-28.5,0-42.8,0c-0.7,0-1.1-0.2-1.5-0.8c-8.2-11.7-16.4-23.4-24.6-35
	c-5.2-7.3-10.3-14.7-15.5-22c-0.1-0.1-0.2-0.2-0.3-0.4c-1.5,1.7-2.9,3.4-4.4,5c-11.5,13.1-23,26.2-34.6,39.3
	c-3.9,4.4-7.8,8.8-11.6,13.3c-0.4,0.5-0.8,0.6-1.4,0.6c-4.1,0-8.1,0-12.4,0c19.6-22.3,39.1-44.4,58.6-66.6
	C39.1,55.6,19.6,27.9,0,0.1C0.4,0.1,0.6,0,0.8,0c14.4,0,28.7,0,43.1,0c0.6,0,0.9,0.3,1.3,0.7c4.6,6.6,9.2,13.1,13.8,19.7
	c7.6,10.8,15.1,21.5,22.7,32.3c0.6,0.8,1.1,1.6,1.7,2.4c1.2-1.3,2.3-2.5,3.4-3.8C98.9,37.5,111,23.7,123.2,9.9
	c2.7-3.1,5.5-6.3,8.3-9.4c0.2-0.3,0.7-0.5,1-0.5c4,0,8.1,0,12.1,0c0.1,0,0.3,0,0.5,0c-18.6,21.2-37.2,42.3-55.8,63.5
	C109.5,92.3,129.7,121.1,150,150L150,150z M18,9.8c0.2,0.3,0.2,0.4,0.3,0.5C25.8,20.6,33.2,31,40.6,41.4
	c13.1,18.4,26.3,36.8,39.4,55.2c10.4,14.5,20.7,29,31.1,43.5c0.3,0.5,0.7,0.6,1.2,0.6c6.2,0,12.4,0,18.6,0c0.3,0,0.5,0,0.9,0
	c-0.2-0.4-0.4-0.6-0.5-0.8c-8.8-12.4-17.7-24.8-26.5-37.1c-8.9-12.5-17.8-25-26.8-37.5c-8.9-12.5-17.8-24.9-26.7-37.4
	c-4.2-5.8-8.3-11.7-12.5-17.5c-0.2-0.3-0.6-0.6-0.9-0.6C31.3,9.8,24.8,9.8,18,9.8L18,9.8z"/>
</svg>
