<svg width="26" height="26" viewBox="0 0 26 26" fill="none" xmlns="http://www.w3.org/2000/svg">
<g clip-path="url(#clip0_15_604)">
<path d="M22.1787 0H3.82129C1.71422 0 0 1.71422 0 3.82129V16.0596C0 17.3076 0.601555 18.4177 1.52979 19.1155V20.2538C1.52979 21.4637 2.33756 22.4884 3.442 22.8172V25.2383C3.442 25.5313 3.61019 25.7984 3.87446 25.9251C3.97922 25.9754 4.0917 26 4.20357 26C4.37389 26 4.54284 25.9429 4.68071 25.8321L8.29618 22.9277H15.677C16.5261 22.9277 17.2834 22.5295 17.7736 21.9105L21.64 25.7769C21.7858 25.9227 21.9806 26 22.1788 26C22.2769 26 22.3759 25.9811 22.4701 25.9421C22.7548 25.8241 22.9404 25.5464 22.9404 25.2383V19.8046C24.6837 19.4505 25.9999 17.9058 25.9999 16.0596V3.82129C26 1.71422 24.2858 0 22.1787 0ZM24.4766 16.0596C24.4766 17.3266 23.4458 18.3574 22.1787 18.3574C21.758 18.3574 21.417 18.6985 21.417 19.1191V23.3993L16.5982 18.5806C16.4553 18.4377 16.2616 18.3574 16.0596 18.3574H3.82129C2.5543 18.3574 1.52344 17.3266 1.52344 16.0596V3.82129C1.52344 2.55425 2.5543 1.52344 3.82129 1.52344H22.1787C23.4458 1.52344 24.4766 2.55425 24.4766 3.82129V16.0596ZM15.6771 21.4043H8.02821C7.85469 21.4043 7.68645 21.4636 7.55117 21.5722L4.96544 23.6493V22.166C4.96544 21.7453 4.62439 21.4043 4.20372 21.4043C3.56936 21.4043 3.05322 20.8882 3.05322 20.2538V19.8033C3.30139 19.8541 3.55829 19.8809 3.82129 19.8809H15.7441L16.6799 20.8168C16.4825 21.167 16.1071 21.4043 15.6771 21.4043Z" fill="#76778B"/>
<path d="M13.7908 11.0474C13.7908 10.638 13.9503 10.253 14.2398 9.96343L15.1612 9.04201C15.7385 8.46473 16.0564 7.69722 16.0564 6.88081C16.0564 5.19548 14.6853 3.82439 13 3.82439C11.3147 3.82439 9.94357 5.19548 9.94357 6.88081V7.64568C9.94357 8.06635 10.2846 8.40739 10.7053 8.40739C11.126 8.40739 11.467 8.06635 11.467 7.64568V6.88086C11.467 6.03555 12.1547 5.34787 13 5.34787C13.8453 5.34787 14.533 6.03555 14.533 6.88086C14.533 7.29031 14.3735 7.67528 14.084 7.96484L13.1626 8.88621C12.5853 9.46349 12.2674 10.231 12.2674 11.0474V12.2351C12.2674 12.6558 12.6084 12.9969 13.0291 12.9969C13.4498 12.9969 13.7908 12.6558 13.7908 12.2351V11.0474Z" fill="#76778B"/>
<path d="M13 14.533C12.6016 14.533 12.2198 14.8833 12.2383 15.2947C12.2568 15.7074 12.573 16.0564 13 16.0564C13.3984 16.0564 13.7802 15.7061 13.7617 15.2947C13.7432 14.882 13.427 14.533 13 14.533Z" fill="#76778B"/>
</g>
<defs>
<clipPath id="clip0_15_604">
<rect width="26" height="26" fill="white"/>
</clipPath>
</defs>
</svg>
