<svg width="25" height="12" viewBox="0 0 25 12" fill="none" xmlns="http://www.w3.org/2000/svg">
<path d="M16.7193 0.292786C16.5318 0.105315 16.2775 0 16.0123 0C15.7471 0 15.4928 0.105315 15.3053 0.292786L6.01229 9.58577L1.71929 5.29278C1.62704 5.19727 1.5167 5.12109 1.39469 5.06868C1.27269 5.01627 1.14147 4.98868 1.00869 4.98753C0.87591 4.98638 0.744231 5.01168 0.621334 5.06196C0.498438 5.11224 0.386786 5.18649 0.292893 5.28039C0.199 5.37428 0.124747 5.48593 0.0744663 5.60883C0.0241854 5.73172 -0.00111606 5.8634 3.77571e-05 5.99618C0.00119157 6.12896 0.0287779 6.26018 0.0811869 6.38218C0.133596 6.50419 0.209778 6.61453 0.305288 6.70678L5.30529 11.7068C5.49282 11.8942 5.74712 11.9996 6.01229 11.9996C6.27745 11.9996 6.53176 11.8942 6.71929 11.7068L16.7193 1.70678C16.9068 1.51926 17.0121 1.26495 17.0121 0.999785C17.0121 0.734621 16.9068 0.480314 16.7193 0.292786Z" fill="#70BB25"/>
<path d="M23.7192 0.292786C23.5317 0.105315 23.2774 0 23.0122 0C22.7471 0 22.4928 0.105315 22.3052 0.292786L13.0122 9.58577L10.4265 7C9.57285 7.56039 9.24043 7.77859 8.71924 8.12078L12.3052 11.7068C12.4928 11.8942 12.7471 11.9996 13.0122 11.9996C13.2774 11.9996 13.5317 11.8942 13.7192 11.7068L23.7192 1.70678C23.9067 1.51926 24.012 1.26495 24.012 0.999785C24.012 0.734621 23.9067 0.480314 23.7192 0.292786Z" fill="#70BB25"/>
</svg>
