<svg width="270" height="270" viewBox="0 0 270 270" fill="none" xmlns="http://www.w3.org/2000/svg">
<g clip-path="url(#clip0_475_528)">
<g opacity="0.244">
<g opacity="0.7">
<path d="M135 202.755C172.42 202.755 202.755 172.42 202.755 135C202.755 97.5796 172.42 67.2446 135 67.2446C97.58 67.2446 67.2451 97.5796 67.2451 135C67.2451 172.42 97.58 202.755 135 202.755Z" stroke="#028DAE"/>
</g>
<g opacity="0.5">
<path d="M135 225.859C185.18 225.859 225.859 185.18 225.859 135C225.859 84.8196 185.18 44.1406 135 44.1406C84.8201 44.1406 44.1411 84.8196 44.1411 135C44.1411 185.18 84.8201 225.859 135 225.859Z" stroke="#028DAE"/>
</g>
<g opacity="0.3">
<path d="M135 247.604C197.19 247.604 247.604 197.19 247.604 135C247.604 72.8104 197.19 22.3958 135 22.3958C72.8104 22.3958 22.3958 72.8104 22.3958 135C22.3958 197.19 72.8104 247.604 135 247.604Z" stroke="#028DAE"/>
</g>
<g opacity="0.1">
<path d="M135 269.802C209.449 269.802 269.802 209.449 269.802 135C269.802 60.5509 209.449 0.197998 135 0.197998C60.5509 0.197998 0.197998 60.5509 0.197998 135C0.197998 209.449 60.5509 269.802 135 269.802Z" stroke="#028DAE"/>
</g>
</g>
</g>
<defs>
<clipPath id="clip0_475_528">
<rect width="270" height="270" fill="white"/>
</clipPath>
</defs>
</svg>
