<svg width="12" height="12" viewBox="0 0 12 12" fill="none" xmlns="http://www.w3.org/2000/svg">
<g clip-path="url(#clip0_14_500)">
<path d="M12 11.4996V7.99957C11.9987 6.8065 11.5241 5.66268 10.6805 4.81905C9.83689 3.97543 8.69307 3.5009 7.5 3.49957H5.085V2.70657C5.08496 2.50882 5.02629 2.31552 4.9164 2.15111C4.80652 1.98671 4.65035 1.85857 4.46765 1.7829C4.28495 1.70723 4.08392 1.68742 3.88997 1.72599C3.69602 1.76456 3.51785 1.85976 3.378 1.99957L0.437999 4.93907C0.156792 5.22036 -0.0011816 5.60182 -0.0011816 5.99957C-0.0011816 6.39731 0.156792 6.77878 0.437999 7.06007L3.378 9.99956C3.51785 10.1394 3.69602 10.2346 3.88997 10.2731C4.08392 10.3117 4.28495 10.2919 4.46765 10.2162C4.65035 10.1406 4.80652 10.0124 4.9164 9.84802C5.02629 9.68361 5.08496 9.49031 5.085 9.29256V8.49956H8C8.79541 8.50036 9.55801 8.81668 10.1204 9.37912C10.6829 9.94156 10.9992 10.7042 11 11.4996C11 11.6322 11.0527 11.7593 11.1464 11.8531C11.2402 11.9469 11.3674 11.9996 11.5 11.9996C11.6326 11.9996 11.7598 11.9469 11.8536 11.8531C11.9473 11.7593 12 11.6322 12 11.4996ZM4.085 3.99957C4.085 4.13218 4.13768 4.25936 4.23145 4.35312C4.32521 4.44689 4.45239 4.49957 4.585 4.49957H7.5C8.42793 4.50063 9.31756 4.86972 9.9737 5.52586C10.6299 6.18201 10.9989 7.07163 11 7.99957V8.85656C10.6252 8.43004 10.1638 8.08836 9.64642 7.85436C9.12909 7.62035 8.56779 7.4994 8 7.49957H4.585C4.45239 7.49957 4.32521 7.55224 4.23145 7.64601C4.13768 7.73978 4.085 7.86696 4.085 7.99957V9.29256L1.1455 6.35307C1.05176 6.2593 0.999105 6.13215 0.999105 5.99957C0.999105 5.86699 1.05176 5.73983 1.1455 5.64607L4.085 2.70657V3.99957Z" fill="#0B406A"/>
</g>
<defs>
<clipPath id="clip0_14_500">
<rect width="12" height="12" fill="white" transform="matrix(-1 0 0 1 12 0)"/>
</clipPath>
</defs>
</svg>
