<svg width="15" height="14" viewBox="0 0 15 14" fill="none" xmlns="http://www.w3.org/2000/svg">
<path d="M11.875 0.0848389H3.125C2.2965 0.0858313 1.50222 0.41539 0.916387 1.00123C0.330551 1.58706 0.000992411 2.38134 0 3.20984L0 10.7098C0.000992411 11.5383 0.330551 12.3326 0.916387 12.9185C1.50222 13.5043 2.2965 13.8338 3.125 13.8348H11.875C12.7035 13.8338 13.4978 13.5043 14.0836 12.9185C14.6694 12.3326 14.999 11.5383 15 10.7098V3.20984C14.999 2.38134 14.6694 1.58706 14.0836 1.00123C13.4978 0.41539 12.7035 0.0858313 11.875 0.0848389V0.0848389ZM3.125 1.33484H11.875C12.2492 1.33557 12.6147 1.44829 12.9243 1.65847C13.234 1.86865 13.4737 2.16668 13.6125 2.51421L8.82625 7.30109C8.47402 7.65191 7.99713 7.84888 7.5 7.84888C7.00287 7.84888 6.52598 7.65191 6.17375 7.30109L1.3875 2.51421C1.52634 2.16668 1.76601 1.86865 2.07565 1.65847C2.3853 1.44829 2.75076 1.33557 3.125 1.33484V1.33484ZM11.875 12.5848H3.125C2.62772 12.5848 2.15081 12.3873 1.79917 12.0357C1.44754 11.684 1.25 11.2071 1.25 10.7098V4.14734L5.29 8.18484C5.87664 8.77 6.67141 9.09861 7.5 9.09861C8.32859 9.09861 9.12336 8.77 9.71 8.18484L13.75 4.14734V10.7098C13.75 11.2071 13.5525 11.684 13.2008 12.0357C12.8492 12.3873 12.3723 12.5848 11.875 12.5848Z" fill="#57B5B4"/>
</svg>
