<svg width="29" height="29" viewBox="0 0 29 29" fill="none" xmlns="http://www.w3.org/2000/svg">
<g clip-path="url(#clip0_13_339)">
<path d="M17.8975 23.73H6.27252C4.73152 23.7281 3.25416 23.1152 2.1645 22.0255C1.07485 20.9358 0.461868 19.4585 0.460022 17.9175L0.460022 6.29248C0.461868 4.75148 1.07485 3.27412 2.1645 2.18446C3.25416 1.09481 4.73152 0.481826 6.27252 0.47998L17.8975 0.47998C19.4385 0.481826 20.9159 1.09481 22.0055 2.18446C23.0952 3.27412 23.7082 4.75148 23.71 6.29248V17.9175C23.7082 19.4585 23.0952 20.9358 22.0055 22.0255C20.9159 23.1152 19.4385 23.7281 17.8975 23.73ZM6.27252 2.80498C5.34758 2.80498 4.46052 3.17241 3.80649 3.82645C3.15245 4.48048 2.78502 5.36754 2.78502 6.29248V17.9175C2.78502 18.8424 3.15245 19.7295 3.80649 20.3835C4.46052 21.0375 5.34758 21.405 6.27252 21.405H17.8975C18.8225 21.405 19.7095 21.0375 20.3636 20.3835C21.0176 19.7295 21.385 18.8424 21.385 17.9175V6.29248C21.385 5.36754 21.0176 4.48048 20.3636 3.82645C19.7095 3.17241 18.8225 2.80498 17.8975 2.80498H6.27252ZM28.36 22.5675V7.45498C28.36 7.14667 28.2375 6.85098 28.0195 6.63297C27.8015 6.41496 27.5058 6.29248 27.1975 6.29248C26.8892 6.29248 26.5935 6.41496 26.3755 6.63297C26.1575 6.85098 26.035 7.14667 26.035 7.45498V22.5675C26.035 23.4924 25.6676 24.3795 25.0136 25.0335C24.3595 25.6875 23.4725 26.055 22.5475 26.055H7.43502C7.12671 26.055 6.83102 26.1775 6.61301 26.3955C6.395 26.6135 6.27252 26.9092 6.27252 27.2175C6.27252 27.5258 6.395 27.8215 6.61301 28.0395C6.83102 28.2575 7.12671 28.38 7.43502 28.38H22.5475C24.0885 28.3781 25.5659 27.7652 26.6555 26.6755C27.7452 25.5858 28.3582 24.1085 28.36 22.5675Z" fill="#0B406A"/>
</g>
<defs>
<clipPath id="clip0_13_339">
<rect width="27.9" height="27.9" fill="white" transform="translate(0.460022 0.47998)"/>
</clipPath>
</defs>
</svg>
