<svg width="15" height="29" viewBox="0 0 15 29" fill="none" xmlns="http://www.w3.org/2000/svg">
<path d="M4.29276 28.3795C4.2883 28.2619 4.27983 28.1444 4.27983 28.0263C4.27894 24.0305 4.27938 20.0352 4.27938 16.0394V15.6564H0V10.6941H4.27938C4.27938 10.5533 4.27938 10.4469 4.27938 10.3404C4.28473 9.05096 4.25932 7.7606 4.30391 6.47247C4.3494 5.16297 4.69456 3.93096 5.47588 2.84951C6.35574 1.63086 7.57186 0.954285 9.02077 0.646952C9.97333 0.444736 10.9375 0.467452 11.8999 0.504866C12.6896 0.535154 13.4781 0.602411 14.267 0.655415C14.3374 0.660314 14.407 0.679912 14.4797 0.692829V5.11353C14.1064 5.11353 13.7457 5.10907 13.3844 5.11442C12.6941 5.12466 12.002 5.11442 11.3134 5.1594C10.1419 5.23646 9.51623 5.78654 9.44577 6.94951C9.37129 8.1784 9.42882 9.4153 9.42882 10.6901H14.316C14.1002 12.3608 13.8906 13.9874 13.677 15.6435H9.43105C9.4208 15.7499 9.40742 15.827 9.40742 15.904C9.40652 19.9996 9.40652 24.0951 9.40742 28.1907C9.40742 28.2539 9.41678 28.3167 9.42169 28.38H4.29365L4.29276 28.3795Z" fill="#0B406A"/>
</svg>
