<svg width="28" height="29" viewBox="0 0 28 29" fill="none" xmlns="http://www.w3.org/2000/svg">
<path d="M15.6527 28.3782H9.88965V9.78829H15.4171V12.263C15.8155 11.7987 16.1539 11.3281 16.5668 10.9384C17.5847 9.97726 18.828 9.47851 20.2097 9.35132C21.404 9.2414 22.591 9.32861 23.7434 9.68927C25.6635 10.2898 26.7959 11.6407 27.3599 13.5266C27.7337 14.7776 27.8683 16.0658 27.8774 17.3603C27.902 20.9597 27.892 24.5599 27.8956 28.1593C27.8956 28.2038 27.8874 28.2474 27.8811 28.321H22.1107C22.1107 28.1865 22.1107 28.0539 22.1107 27.9213C22.1089 24.8443 22.1171 21.7664 22.098 18.6894C22.0943 18.0462 22.0361 17.394 21.9188 16.7617C21.5622 14.8303 20.317 14.2025 18.5661 14.4024C16.9407 14.5868 16.0411 15.5452 15.7937 17.3095C15.7046 17.9481 15.6627 18.5977 15.66 19.2427C15.6464 22.1498 15.6536 25.0569 15.6536 27.964C15.6536 28.0975 15.6536 28.2301 15.6536 28.38L15.6527 28.3782Z" fill="#0B406A"/>
<path d="M6.22288 28.3772H0.483459V9.77637H6.22288V28.3772Z" fill="#0B406A"/>
<path d="M6.68974 3.876C6.65062 5.77379 5.11981 7.25731 3.24791 7.21189C1.45149 7.16828 -0.037483 5.593 0.000719121 3.77516C0.0398309 1.92735 1.58884 0.433831 3.41617 0.481071C5.26079 0.52922 6.72703 2.04999 6.68974 3.876Z" fill="#0B406A"/>
</svg>
