<svg width="28" height="27" viewBox="0 0 28 27" fill="none" xmlns="http://www.w3.org/2000/svg">
<path fill-rule="evenodd" clip-rule="evenodd" d="M27.8823 2.70353C27.497 7.19513 25.8231 18.0986 24.9734 23.13C24.6138 25.261 23.9031 25.9737 23.2182 26.0424C21.7263 26.1939 20.5939 24.9508 19.1491 23.9043C16.8888 22.2658 15.6109 21.2453 13.4169 19.6447C10.8804 17.7955 12.5243 16.7798 13.9691 15.12C14.348 14.6843 20.9193 8.07121 21.0477 7.47217C21.0627 7.3964 21.0798 7.117 20.9278 6.9702C20.7759 6.8234 20.5554 6.87314 20.397 6.91339C20.1701 6.97021 16.5591 9.61024 9.56187 14.8335C8.53657 15.6125 7.60761 15.9913 6.77496 15.9724C5.85883 15.9511 4.09508 15.3994 2.78296 14.9258C1.17545 14.3481 -0.104557 14.0403 0.00674801 13.06C0.0645411 12.5486 0.700265 12.0253 1.91606 11.4902C9.40348 7.88179 14.3972 5.50221 16.8952 4.35149C24.0294 1.0698 25.5106 0.499162 26.4781 0.48022C27.6896 0.461278 27.9808 1.56701 27.8823 2.70353Z" fill="#0B406A"/>
</svg>
