<svg width="27" height="29" viewBox="0 0 27 29" fill="none" xmlns="http://www.w3.org/2000/svg">
<path d="M26.0402 28.3769H25.8862C23.4083 28.3769 20.9303 28.376 18.4527 28.38C18.3316 28.38 18.2594 28.344 18.1911 28.2396C16.7709 26.0652 15.3475 23.8931 13.924 21.7209C13.0287 20.3541 12.1326 18.988 11.2367 17.6216C11.2232 17.6007 11.2056 17.5829 11.1813 17.5534C10.9235 17.8674 10.6693 18.177 10.4153 18.4864C8.41594 20.9215 6.41657 23.3567 4.4172 25.7921C3.74244 26.6142 3.06738 27.436 2.39613 28.2608C2.32663 28.3462 2.25743 28.38 2.14922 28.3794C1.44572 28.3738 0.742212 28.3766 0 28.3766C3.40022 24.234 6.78079 20.1154 10.166 15.991C6.77961 10.8252 3.39934 5.66916 0.00733121 0.494726C0.0656877 0.490118 0.106156 0.483974 0.146624 0.483974C2.63924 0.48336 5.13185 0.484588 7.62446 0.47998C7.73678 0.47998 7.78868 0.532818 7.84293 0.616069C8.64057 1.83564 9.43967 3.0546 10.2388 4.27326C11.5519 6.27649 12.8651 8.27942 14.1783 10.2824C14.2745 10.4289 14.3712 10.5748 14.4771 10.7358C14.6777 10.4928 14.8692 10.2627 15.0592 10.0311C17.1662 7.46381 19.2732 4.89625 21.3802 2.3287C21.8576 1.74686 22.3335 1.1635 22.8144 0.585042C22.8561 0.534969 22.932 0.487968 22.9927 0.48766C23.6915 0.480902 24.3904 0.48336 25.0895 0.483667C25.112 0.483667 25.1349 0.487353 25.1845 0.491654C21.9473 4.43576 18.7251 8.36175 15.497 12.2945C19.009 17.6514 22.5159 23.0009 26.0399 28.3766L26.0402 28.3769ZM3.13101 2.29644C3.15975 2.34313 3.17383 2.36832 3.18966 2.39198C4.47644 4.32087 5.76351 6.24946 7.05028 8.17866C9.33263 11.6005 11.615 15.0224 13.8973 18.444C15.6958 21.1403 17.4946 23.8362 19.2902 26.5346C19.3488 26.6228 19.4089 26.6492 19.5054 26.6489C20.5805 26.6462 21.6558 26.6474 22.7312 26.6477C22.776 26.6477 22.8212 26.6477 22.8898 26.6477C22.8467 26.5792 22.8235 26.5405 22.7989 26.5033C21.2632 24.2012 19.7265 21.8996 18.1911 19.5975C16.6419 17.2742 15.0941 14.9496 13.5449 12.6263C11.9986 10.3072 10.4511 7.98851 8.9042 5.66978C8.17958 4.58383 7.45555 3.49728 6.72829 2.41348C6.69398 2.36249 6.6283 2.30166 6.57698 2.30136C5.43829 2.2949 4.2999 2.29644 3.13131 2.29644H3.13101Z" fill="#0B406A"/>
</svg>
