<svg width="28" height="29" viewBox="0 0 28 29" fill="none" xmlns="http://www.w3.org/2000/svg">
<path fill-rule="evenodd" clip-rule="evenodd" d="M23.722 4.53478C21.111 1.92148 17.6398 0.481143 13.9419 0.47998C6.32168 0.47998 0.119738 6.68076 0.11625 14.3044C0.115088 16.741 0.752137 19.1195 1.9623 21.2167L0 28.38L7.3284 26.4572C9.34766 27.5593 11.6215 28.1393 13.9349 28.1405H13.9407C21.5597 28.1405 27.7628 21.9386 27.7663 14.3149C27.7686 10.6216 26.3318 7.14692 23.722 4.53478ZM13.9419 25.805H13.9372C11.8749 25.805 9.85335 25.2505 8.08867 24.2031L7.66901 23.9543L3.3201 25.0948L4.48144 20.854L4.20825 20.4192C3.05737 18.5894 2.45055 16.4748 2.45171 14.3044C2.45404 7.96881 7.60973 2.81428 13.9477 2.81428C17.0167 2.81428 19.902 4.01166 22.0712 6.18321C24.2405 8.35592 25.4343 11.2424 25.4332 14.3126C25.4297 20.6505 20.2752 25.805 13.9419 25.805ZM20.2449 17.1991C19.8997 17.0258 18.2013 16.19 17.8839 16.0749C17.5677 15.9598 17.3375 15.9017 17.1062 16.247C16.8749 16.5922 16.2146 17.3711 16.0123 17.6024C15.8112 17.8326 15.6089 17.8617 15.2636 17.6885C14.9184 17.5153 13.8047 17.1514 12.4852 15.9738C11.4588 15.0577 10.7648 13.9266 10.5636 13.5802C10.3625 13.2338 10.5427 13.0478 10.7148 12.8757C10.8705 12.7211 11.06 12.4723 11.2332 12.2701C11.4076 12.0701 11.4646 11.926 11.5808 11.6946C11.6959 11.4644 11.639 11.2622 11.5518 11.089C11.4646 10.9169 10.7741 9.21617 10.4869 8.52448C10.2068 7.85023 9.92194 7.94207 9.7092 7.9316C9.50809 7.92114 9.27791 7.91998 9.04658 7.91998C8.8164 7.91998 8.44207 8.006 8.12587 8.35243C7.80967 8.69885 6.91687 9.53469 6.91687 11.2343C6.91687 12.935 8.15494 14.5776 8.32699 14.8078C8.49904 15.038 10.7624 18.5278 14.2278 20.0239C15.052 20.3797 15.6961 20.5924 16.1971 20.7517C17.0248 21.0144 17.7781 20.9772 18.3733 20.8888C19.0371 20.79 20.417 20.053 20.7053 19.2462C20.9936 18.4394 20.9936 17.7466 20.9064 17.6036C20.8204 17.4583 20.5902 17.3723 20.2449 17.1991Z" fill="#0B406A"/>
</svg>
